<?xml version="1.0" standalone="no"?>
<!DOCTYPE svg PUBLIC "-//W3C//DTD SVG 1.1//EN" "http://www.w3.org/Graphics/SVG/1.1/DTD/svg11.dtd" >
<!--
2013-9-30: Created.
-->
<svg>
<metadata>
Created by iconfont
</metadata>
<defs>

<font id="iconfont" horiz-adv-x="1024" >
  <font-face
    font-family="iconfont"
    font-weight="500"
    font-stretch="normal"
    units-per-em="1024"
    ascent="896"
    descent="-128"
  />
    <missing-glyph />
    
    <glyph glyph-name="x" unicode="x" horiz-adv-x="1001"
d="M281 543q-27 -1 -53 -1h-83q-18 0 -36.5 -6t-32.5 -18.5t-23 -32t-9 -45.5v-76h912v41q0 16 -0.5 30t-0.5 18q0 13 -5 29t-17 29.5t-31.5 22.5t-49.5 9h-133v-97h-438v97zM955 310v-52q0 -23 0.5 -52t0.5 -58t-10.5 -47.5t-26 -30t-33 -16t-31.5 -4.5q-14 -1 -29.5 -0.5
t-29.5 0.5h-32l-45 128h-439l-44 -128h-29h-34q-20 0 -45 1q-25 0 -41 9.5t-25.5 23t-13.5 29.5t-4 30v167h911zM163 247q-12 0 -21 -8.5t-9 -21.5t9 -21.5t21 -8.5q13 0 22 8.5t9 21.5t-9 21.5t-22 8.5zM316 123q-8 -26 -14 -48q-5 -19 -10.5 -37t-7.5 -25t-3 -15t1 -14.5
t9.5 -10.5t21.5 -4h37h67h81h80h64h36q23 0 34 12t2 38q-5 13 -9.5 30.5t-9.5 34.5q-5 19 -11 39h-368zM336 498v228q0 11 2.5 23t10 21.5t20.5 15.5t34 6h188q31 0 51.5 -14.5t20.5 -52.5v-227h-327z" />
    

    
    <glyph glyph-name="a" unicode="&#58920;" d="M757.76 230.4q0-20.48 1.536-34.304t7.68-22.016 18.944-12.288 34.304-4.096q-3.072-25.6-15.36-44.032-11.264-16.384-33.28-29.696t-62.976-13.312q-11.264 0-20.48 0.512t-17.408 2.56l-6.144 2.048-1.024 0q-4.096 1.024-10.24 4.096-2.048 2.048-4.096 2.048-1.024 1.024-2.048 1.024-14.336 8.192-23.552 17.408t-14.336 17.408q-6.144 10.24-9.216 20.48-63.488-75.776-178.176-75.776-48.128 0-88.064 15.36t-69.12 44.032-45.056 68.096-15.872 88.576 16.896 89.088 47.616 67.584 74.24 42.496 96.768 14.848q48.128 0 88.576-17.408t66.048-49.152q0 8.192 0.512 16.384t0.512 15.36q0 71.68-39.936 104.448t-128 32.768q-43.008 0-84.992-6.656t-84.992-17.92q14.336 28.672 25.088 47.616t24.064 29.184q30.72 24.576 158.72 24.576 79.872 0 135.168-13.824t90.624-43.52 51.2-75.264 15.872-108.032l0-200.704zM487.424 152.576q50.176 0 79.872 33.28t29.696 95.744q0 61.44-28.672 93.696t-76.8 32.256q-52.224 0-82.944-33.28t-30.72-94.72q0-58.368 31.744-92.672t77.824-34.304z"  horiz-adv-x="1024" />

    
    <glyph glyph-name="zuo" unicode="&#58933;" d="M512.228308-208.169734c281.771231 0 510.188828 228.377848 510.188828 510.082828 0 281.716192-228.416578 510.086905-510.188828 510.086905-281.750846 0-510.167424-228.370713-510.167424-510.086905C2.060883 20.207095 230.477461-208.169734 512.228308-208.169734zM512.227288 745.746992c245.174758 0 443.916455-198.71112 443.916455-443.834917 0-245.125835-198.741697-443.838994-443.916455-443.838994-245.162527 0-443.902186 198.713158-443.902186 443.838994C68.325103 547.035872 267.064761 745.746992 512.227288 745.746992zM353.481196 303.829247 624.953107 32.357336 665.694788 73.100036 434.965577 303.829247 665.694788 534.557439 624.953107 575.300139Z"  horiz-adv-x="1024" />

    
    <glyph glyph-name="iconfont707" unicode="&#58921;" d="M914.817322 274.688521 109.182678 274.688521c-13.482059 0-24.413016 11.06501-24.413016 24.559349s10.930957 24.559349 24.413016 24.559349l805.634644 0c13.482059 0 24.413016-11.06501 24.413016-24.559349S928.299381 274.688521 914.817322 274.688521zM536.440645 702.064168l0-805.634644c0-13.482059-11.06501-24.413016-24.559349-24.413016s-24.559349 10.930957-24.559349 24.413016l0 805.634644c0 13.482059 11.06501 24.413016 24.559349 24.413016S536.440645 715.546228 536.440645 702.064168z"  horiz-adv-x="1024" />

    
    <glyph glyph-name="kuajingzhifuicongeren" unicode="&#58934;" d="M511.968-212C246.048-212 0-194.72 0-69.44c0 100.064 162.112 212.8 361.44 251.328 17.344 4.064 31.84 18.112 37.376 36.64 6.016 20.288 0 41.6-16.352 58.56-0.608 0.672-1.184 1.312-1.696 1.984-63.104 62.688-103.712 167.104-103.712 267.264C277.056 702.752 373.664 812 511.968 812s234.976-109.248 234.976-265.728c0-101.856-42.016-207.936-106.912-270.336-15.424-16.256-21.248-37.408-15.296-57.44 5.344-18.272 19.808-32.32 37.536-36.64C861.312 143.744 1024 30.944 1024-69.44 1024-194.72 777.92-212 511.968-212L511.968-212zM511.968-212"  horiz-adv-x="1024" />

    
    <glyph glyph-name="yundong101" unicode="&#58935;" d="M297.888 366.696c19.456 18.352 143.832 142.32 143.832 142.32l71.928 0L405.784 310.368l0-213.472c0 0-188.544 0.04-215.768 0-27.232-0.032-34.048-70.648 0-71.16 34.04-0.496 287.672 0 287.672 0l0.016 213.488 143.84-121.616c0 0-0.088-197.504 0-234.184 0.08-36.688 72.32-32.12 71.92 0-0.384 32.112 0 284.632 0 284.632l-143.848 127.44 35.968 86.048 35.968-35.584c0 0 180.2 4.896 215.76 0 35.568-4.912 45.984 70.496 0 71.16-45.984 0.664-179.8 0-179.8 0L657.512 595.016 405.784 595.016c-1.32 1.216-142.784-160.872-158.232-185.016C235.48 387.76 276.032 346.088 297.888 366.696zM765.376 666.176c0 39.248-32.224 71.16-71.912 71.16-39.696 0-71.92-31.904-71.92-71.16 0-39.272 32.224-71.16 71.92-71.16C733.16 595.016 765.376 626.904 765.376 666.176"  horiz-adv-x="1024" />

    
    <glyph glyph-name="iconfontjiantouyou" unicode="&#58938;" d="M507.913259-147.013917c-249.059397 0-450.962913 200.209858-450.962913 447.184809 0 246.973928 201.902492 447.184809 450.962913 447.184809 249.061444 0 450.963936-200.210881 450.963936-447.184809C958.877195 53.195941 756.974703-147.013917 507.913259-147.013917zM507.913259 710.088936c-228.30692 0-413.382499-183.523827-413.382499-409.919067s185.076602-409.919067 413.382499-409.919067c228.307944 0 413.382499 183.52485 413.382499 409.919067S736.22018 710.088936 507.913259 710.088936zM708.36669 280.409826 509.051222 82.76642c-11.000992-10.900258-28.855347-10.900258-39.85634 0-11.010203 10.916631-11.010203 28.621874 0 39.539528l151.936496 150.661372L312.534611 272.96732c-15.561032 0-28.185054 12.519128-28.185054 27.949562 0 15.438621 12.624022 27.949562 28.185054 27.949562l307.090399 0L469.194883 478.036859c-11.010203 10.917654-11.010203 28.612665 0 39.522132 11.000992 10.917654 28.855347 10.917654 39.85634 0l197.14904-195.497533c3.688147-3.057639 6.605712-6.823406 8.3321-11.354606 0.145315-0.372483 0.108475-0.782829 0.237417-1.163499 0.91692-2.756787 1.741739-5.567809 1.741739-8.625448 0-0.054235-0.017397-0.100284-0.017397-0.155543C716.659904 293.410931 714.017619 286.013451 708.36669 280.409826z"  horiz-adv-x="1024" />

    
    <glyph glyph-name="gouwucheshoppingcart" unicode="&#58937;" d="M874.576 538.898c-14.141 14.863-33.442 23.017-54.601 23.017h-478.3c-15.173 0-27.662-11.56-27.662-25.701s12.386-25.701 27.662-25.701h478.197c5.161 0 9.702-1.858 13.315-5.574 5.47-5.78 8.051-15.276 7.019-23.946l-43.557-231.615c-1.548-11.457-13.108-21.469-26.836-21.572l-374.672-25.701c-15.069-1.135-26.526-13.315-25.494-27.559 1.032-13.521 13.212-23.843 27.559-23.843 0.619 0 1.445 0 2.168 0.206l372.711 25.494c39.841 0 74.728 29.21 79.476 65.232l43.557 231.615c2.993 24.875-4.335 48.614-20.54 65.645zM811.202 99.303h-448.677c-11.663 0-23.327 10.012-24.875 21.985l-47.066 308.098-26.526 142.85c-4.851 37.364-40.254 66.677-80.508 66.677h-35.196c-15.173 0-27.662-11.56-27.662-25.701s12.386-25.701 27.662-25.701h35.196c11.973 0 24.256-10.115 25.907-22.707l26.63-143.469 46.86-306.859c4.851-37.364 39.841-66.677 79.682-66.677h448.574c15.379 0 27.662 11.56 27.662 25.701 0 14.347-12.283 25.804-27.662 25.804zM320-29.2c0 0 0 0 0 0 0-27.476 22.274-49.75 49.75-49.75 27.476 0 49.75 22.274 49.75 49.75 0 0 0 0 0 0 0 0 0 0 0 0 0 27.476-22.274 49.75-49.75 49.75-27.476 0-49.75-22.274-49.75-49.75s0 0 0 0zM706.748-29.2c0 0 0 0 0 0 0-27.476 22.274-49.75 49.75-49.75 27.476 0 49.75 22.274 49.75 49.75 0 0 0 0 0 0 0 0 0 0 0 0 0 27.476-22.274 49.75-49.75 49.75-27.476 0-49.75-22.274-49.75-49.75s0 0 0 0z"  horiz-adv-x="1024" />

    
    <glyph glyph-name="1" unicode="&#58948;" d="M226.524 479.955c-47.964 0-86.841-38.973-86.841-87.055 0-48.077 38.876-87.050 86.841-87.050 47.959 0 86.841 38.973 86.841 87.050 0 48.082-38.881 87.055-86.841 87.055zM516.004 479.955c-47.964 0-86.839-38.973-86.839-87.055 0-48.077 38.876-87.050 86.841-87.050 47.959 0 86.839 38.973 86.839 87.050 0 48.082-38.886 87.055-86.839 87.055zM805.479 479.955c-47.964 0-86.851-38.973-86.851-87.055 0-48.077 38.886-87.050 86.851-87.050 47.959 0 86.841 38.973 86.841 87.050 0 48.082-38.881 87.055-86.841 87.055z"  horiz-adv-x="1024" />

    
    <glyph glyph-name="gerencopy21" unicode="&#58939;" d="M198.011 40.631c-92.98 85.072-151.294 207.41-151.294 343.369 0 256.969 208.314 465.283 465.283 465.283 256.969 0 465.283-208.314 465.283-465.283 0-134.635-57.184-255.914-148.589-340.874 6.264-6.339 11.344-12.232 16.525-17.191 22.076-21.080-51.232-48.348-131.126-90.575l-207.136-51.453-260.796 85.213c0 0-83.134 35.735-61.058 56.815 4.507 4.303 8.466 9.308 12.909 14.697zM198.011 40.631c82.758-75.719 192.979-121.915 313.989-121.915 122.334 0 233.64 47.212 316.694 124.409-20.361 20.604-53.227 45.914-142.713 59.146-99.724 14.839-92.411 67.578-93.227 71.221 0.218 9.187 0.489 51.588 0.489 51.588 0 0 57.339 37.633 75.255 88.738 28.248 17.866 40.945 20.33 45.594 40.874 0 0 9.516 77.676-20.826 77.676 0 0-12.615-2.009-8.564 16.178 4.051 18.187 0.326 73.15-1.713 93.372-2.012 20.249 3.888 78.024-38.552 86.113-28.982 5.411-32.353-2.786-46.518-0.777-14.138 2.062-30.967 44.972-57.257 44.972l-54.566-11.169c-26.29 0-22.24-8.089-36.404-10.098-14.138-2.089 2.909 2.009-39.585-6.080-42.467-8.089-57.448-62.73-59.459-82.98-2.012-20.169-2.039-78.989-0.707-109.309 4.051-18.241-12.479-18.241-12.479-18.241-25.448 1.661-14.029-77.649-14.029-77.649 3.67-19.553-1.305-29.276 36.323-44.409 17.971-51.106 78.926-76.926 78.926-76.926 0 0 2.257-32.838 2.963-56.168-3.779 1.955 8.455-59.65-108.506-76.926-93.129-13.792-117.805-40.631-135.128-61.64zM5.757 384c0 279.59 226.653 506.243 506.243 506.243s506.243-226.653 506.243-506.243c0-279.59-226.653-506.243-506.243-506.243-279.59 0-506.243 226.653-506.243 506.243zM511.795-82.944c257.999 0 467.149 209.15 467.149 467.149 0 257.999-209.15 467.149-467.149 467.149-257.999 0-467.149-209.15-467.149-467.149 0-257.999 209.15-467.149 467.149-467.149zM33.857 476.063c0 0 66.543 165.757 91.19 198.86 14.507 19.483 136.297 125.833 136.297 125.833 0 0 110.854 73.060 246.45 69.633 135.596-3.427 208.663-47.714 250.81-64.927 68.113-27.817 176.377-120.925 225.617-284.497 49.24-163.571-41.030-447.537-158.263-489.923-5.147-1.861 87.072 237.485 79.638 255.523-40.349 97.897-111.188 386.087-148.087 401.527-71.022 29.718-140.954 56.38-155.545 52.822-99.767-24.325-214.758-50.684-228.183-69.443-77.597-108.423-168.978-226.032-168.978-226.032v-204.8c0 0 5.982-217.050-15.587-217.050-33.044 0-148.253 217.050-148.253 217.050l-7.103 235.423z"  horiz-adv-x="1024" />

    
    <glyph glyph-name="sousuo1" unicode="&#58940;" d="M951.398021 14.338763 745.308684 220.4281c49.322274 64.05756 78.895173 144.078345 78.895173 231.159788 0 209.773159-170.069751 379.84291-379.84291 379.84291-209.773159 0-379.84291-170.069751-379.84291-379.84291s170.069751-379.84291 379.84291-379.84291c87.081443 0 167.102228 29.675227 231.159788 78.895173l206.089337-206.089337c10.130509-10.130509 26.503048-10.130509 36.633557 0l33.052064 33.052064C961.52853-12.164285 961.52853 4.208254 951.398021 14.338763zM444.360947 149.207555c-166.795243 0-302.380334 135.687419-302.380334 302.380334s135.687419 302.380334 302.380334 302.380334S746.843609 618.383132 746.843609 451.690217 611.156191 149.207555 444.360947 149.207555z"  horiz-adv-x="1024" />

    
    <glyph glyph-name="duihao4" unicode="&#59119;" d="M512 896C229.230592 896 0 666.769408 0 384s229.230592-512 512-512 512 229.230592 512 512S794.769408 896 512 896zM849.613824 542.655488 464.161792 157.202432c-9.407488-9.409536-21.73952-14.112768-34.070528-14.112768s-24.66304 4.704256-34.070528 14.112768l-221.63456 221.63456c-18.817024 18.817024-18.817024 49.324032 0 68.141056 18.816 18.819072 49.32608 18.819072 68.141056 0l187.564032-187.564032 351.381504 351.381504c18.816 18.819072 49.32608 18.819072 68.141056 0C868.431872 591.97952 868.431872 561.472512 849.613824 542.655488z"  horiz-adv-x="1024" />

    
    <glyph glyph-name="iconfontqiye" unicode="&#58941;" d="M258.143315 623.333924l113.742531 0 0-84.068697L258.143315 539.265226 258.143315 623.333924 258.143315 623.333924zM427.930279 623.333924l113.742531 0 0-84.068697L427.930279 539.265226 427.930279 623.333924 427.930279 623.333924 427.930279 623.333924zM258.143315 481.570199l113.742531 0 0-84.068697L258.143315 397.501502 258.143315 481.570199 258.143315 481.570199zM427.930279 481.570199l113.742531 0 0-84.068697L427.930279 397.501502 427.930279 481.570199 427.930279 481.570199 427.930279 481.570199zM709.809181 481.570199l56.047504 0 0-84.068697-56.047504 0L709.809181 481.570199 709.809181 481.570199zM709.809181 341.455021l56.047504 0 0-84.068697-56.047504 0L709.809181 341.455021 709.809181 341.455021zM258.143315 341.455021l113.742531 0 0-84.068697L258.143315 257.386324 258.143315 341.455021 258.143315 341.455021zM427.930279 341.455021l113.742531 0 0-84.068697L427.930279 257.386324 427.930279 341.455021 427.930279 341.455021 427.930279 341.455021zM879.599216 85.947743 879.599216 595.313753l-225.833445 0L653.765771 765.098671 144.400784 765.098671l0-677.502381-28.022217 0 0-56.042387 791.240819 0 0 56.042387-28.021194 0L879.598192 85.947743zM200.448288 85.947743 200.448288 709.052191l395.622456 0 0-621.454878L200.448288 87.597313 200.448288 85.947743zM653.765771 85.947743 653.765771 539.266249l169.785941 0 0-451.668936L653.765771 87.597313 653.765771 85.947743zM653.765771 85.947743"  horiz-adv-x="1024" />

    
    <glyph glyph-name="wangjimima-copy" unicode="&#58942;" d="M958.669 385.749c0-81.695-184.29-255.966-446.911-255.966-255.94 0-446.916 171.403-446.916 255.966 0 84.545 191.798 255.687 446.916 255.687 264.686 0 446.973-171.143 446.911-255.687v0zM512.151 594.745c-118.946 0-215.365-93.639-215.365-209.139s96.419-209.14 215.365-209.14c118.977 0 215.405 93.64 215.405 209.14-0.004 115.501-96.428 209.139-215.405 209.139v0zM512.002 512.455c-68.47 0-123.971-56.762-123.971-126.786 0-70.021 55.502-126.795 123.971-126.795 68.465 0 123.948 56.773 123.948 126.795 0 70.024-55.483 126.786-123.948 126.786zM559.307 371.451c-32.042 0-58.014 25.975-58.014 58.014s25.974 58.014 58.014 58.014c32.041 0 58.013-25.974 58.013-58.014s-25.973-58.014-58.013-58.014z"  horiz-adv-x="1024" />

    
    <glyph glyph-name="duihao5" unicode="&#58998;" d="M511.429507 831.532733c-246.829642 0-446.928982-200.099341-446.928982-446.928982 0-246.828618 200.099341-446.926936 446.928982-446.926936 246.831688 0 446.930005 200.098317 446.930005 446.926936C958.359512 631.434415 758.261195 831.532733 511.429507 831.532733L511.429507 831.532733zM775.353478 532.105153c-0.594541-16.60519-6.242168-30.552853-16.950044-41.841967L468.45781 184.696792l3.566222 3.75758c-10.700713-11.277858-24.681122-17.070794-41.929971-17.386996-17.252943-0.317225-31.225165 5.166673-41.928948 16.45067l-124.014478 131.635039c-10.703783 11.283997-15.902178 24.602328-15.609513 39.95806 0.297782 15.353686 5.798053 28.672016 16.507976 39.956014 10.70276 11.281951 23.786753 16.773012 39.249933 16.455787 15.468296-0.319272 28.55229-6.110161 39.250956-17.397229l86.544075-90.257653 251.585969 265.140683c10.703783 11.279904 23.787776 17.076934 39.250956 17.391089 15.46318 0.317225 28.547173-5.170766 39.260166-16.454764C770.891863 562.661076 775.953136 548.713412 775.353478 532.105153L775.353478 532.105153zM775.353478 532.105153"  horiz-adv-x="1024" />

    
    <glyph glyph-name="bolangxian" unicode="&#58943;" d="M194.851826 320.248024 66.420759 425.464367 118.30136 488.799858 195.782012 425.319058 302.109666 509.332497 405.221068 425.136909 513.184989 509.2097 615.656825 425.310871 721.991642 509.332497 825.103044 425.136909 907.282718 489.127316 957.579241 424.525995 823.889403 320.430172 721.148437 404.320814 614.748129 320.255187 511.904833 404.443611 404.007427 320.430172 301.266461 404.320814Z"  horiz-adv-x="1024" />

    
    <glyph glyph-name="xiangzuochakandianzhongzhuangtai" unicode="&#58986;" d="M512-64c-247.424 0-448 200.576-448 448 0 247.424 200.576 448 448 448 247.424 0 448-200.576 448-448 0-247.424-200.576-448-448-448v0zM469.565 585.783l-182.857-186.978c-14.283-14.602-14.283-38.275 0-52.877l182.857-186.978c14.28-14.605 37.431-14.605 51.711 0 14.283 14.602 14.283 38.274 0 52.877l-120.429 123.145h350.572c20.206 0 36.571 16.735 36.571 37.396 0 20.661-16.366 37.396-36.571 37.396h-350.572l120.429 123.143c7.131 7.292 10.717 16.865 10.717 26.439 0 9.574-3.569 19.145-10.717 26.44-14.28 14.602-37.432 14.602-51.711 0v-0.003z"  horiz-adv-x="1024" />

    
    <glyph glyph-name="xiangyouchakandianzhongzhuangtai" unicode="&#58945;" d="M195.216 700.784c174.955 174.955 458.612 174.955 633.568 0s174.955-458.612 0-633.568c-174.955-174.955-458.612-174.955-633.568 0-174.955 174.955-174.955 458.612 0 633.568v0zM554.435 182.217l182.857 186.978c14.283 14.602 14.283 38.275 0 52.877l-182.857 186.978c-14.28 14.605-37.431 14.605-51.711 0-14.283-14.602-14.283-38.274 0-52.877l120.429-123.145h-350.572c-20.206 0-36.571-16.735-36.572-37.396 0-20.662 16.366-37.395 36.572-37.396h350.572l-120.429-123.143c-7.131-7.292-10.717-16.864-10.717-26.439 0-9.574 3.569-19.145 10.717-26.44 14.28-14.602 37.432-14.602 51.711 0v0.003z"  horiz-adv-x="1024" />

    
    <glyph glyph-name="wechat-copy" unicode="&#58995;" d="M693.12 548.736c11.776 0 23.36-0.896 35.008-2.176-31.36 146.048-187.456 254.528-365.696 254.528-199.232 0-362.432-135.744-362.432-308.224 0-99.52 54.272-181.248 145.024-244.736l-36.224-108.992 126.72 63.488c45.312-8.896 81.664-18.112 126.912-18.112 11.392 0 22.656 0.512 33.792 1.344-7.040 24.256-11.2 49.6-11.2 76.032 0.064 158.336 136 286.848 308.096 286.848zM498.304 646.976c27.392 0 45.376-17.984 45.376-45.248 0-27.136-17.984-45.312-45.376-45.312-27.072 0-54.336 18.176-54.336 45.312 0 27.328 27.2 45.248 54.336 45.248zM244.672 556.416c-27.2 0-54.592 18.176-54.592 45.312 0 27.264 27.392 45.248 54.592 45.248s45.248-17.92 45.248-45.248c0-27.136-18.048-45.312-45.248-45.312zM1024 266.24c0 144.896-145.024 262.976-307.904 262.976-172.48 0-308.224-118.144-308.224-262.976 0-145.28 135.808-262.976 308.224-262.976 36.096 0 72.512 9.024 108.736 18.112l99.392-54.528-27.264 90.624c72.768 54.656 127.040 127.040 127.040 208.768zM616.128 311.616c-17.984 0-36.224 17.92-36.224 36.224 0 18.048 18.24 36.224 36.224 36.224 27.52 0 45.376-18.176 45.376-36.224 0-18.304-17.856-36.224-45.376-36.224zM815.488 311.616c-17.856 0-36.032 17.92-36.032 36.224 0 18.048 18.112 36.224 36.032 36.224 27.264 0 45.376-18.176 45.376-36.224 0-18.304-18.112-36.224-45.376-36.224z"  horiz-adv-x="1024" />

    
    <glyph glyph-name="yanjing-copy-copy-copy" unicode="&#58946;" d="M511.948 647.192c-293.141 0-448.565-277.992-448.565-277.992s167.818-247.091 448.565-247.091c280.768 0 448.604 247.091 448.604 247.091s-137.882 277.992-448.604 277.992zM512.224 226.479c-89.385 0-161.849 70.711-161.849 157.925 0 87.212 72.464 157.925 161.849 157.925 89.385 0 161.849-70.713 161.849-157.925 0-87.213-72.465-157.925-161.849-157.925zM511.968 448.801c-39.134 0-70.858-31.468-70.858-70.274 0-38.806 31.724-70.274 70.858-70.274s70.858 31.468 70.858 70.274c0 38.806-31.724 70.274-70.858 70.274z"  horiz-adv-x="1024" />

    
    <glyph glyph-name="xiangzuoxuanzhuan" unicode="&#58950;" d="M110.915136 524.167367l313.974901 0.045025c26.694989 2.4017 24.704658 14.72026 9.723455 36.166711l-50.164516 84.005252c48.215118 28.279067 104.819301 44.590568 165.389818 44.590568 175.97592 0 318.635037-137.461745 318.635037-307.039955 0-169.563884-142.658094-307.017442-318.635037-307.017442-138.353045 0-256.097726 84.97023-300.128545 203.701378L119.705336 278.618904c47.511083-186.682773 222.313272-325.145311 430.67888-325.145311 244.886383 0 443.412902 191.263092 443.412902 427.28355s-198.526519 427.358251-443.412902 427.358251c-83.19991 0-161.040766-22.095227-227.571019-60.514235l-47.866171 80.155575c-15.026228 21.394263-25.645077 29.238928-37.986149 6.338359L75.248821 565.973518C52.090379 523.944286 77.673034 524.028197 110.915136 524.167367z"  horiz-adv-x="1024" />

    
    <glyph glyph-name="geren" unicode="&#58951;" d="M870.314316 18.609726 870.314316 18.609726C870.314316 18.609726 870.314316 18.609726 870.314316 18.609726 777.938121-71.974532 651.551687-128 512-128 229.239611-128 0.017919 101.258262 0.017919 384.01865 0.017919 666.77904 229.239611 896.000731 512 896.000731 794.760389 896.000731 1023.982081 666.77904 1023.982081 384.01865 1023.982081 240.809949 965.067572 111.534473 870.314316 18.609726ZM512-54.859703C615.932362-54.859703 711.30731-18.545545 786.495536 41.868341 746.451223 155.601503 639.446968 237.738056 512 237.738056 384.553032 237.738056 277.548777 155.601503 237.504464 41.868341 312.69269-18.545545 408.067638-54.859703 512-54.859703ZM512 822.823864C269.649625 822.823864 73.158216 626.332455 73.158216 383.982081 73.158216 274.454485 113.53166 174.58141 179.869911 97.674387 237.723886 223.402558 364.512591 310.841784 512 310.841784 659.450839 310.841784 786.276114 223.402558 844.130089 97.674387 910.46834 174.54484 950.841784 274.454485 950.841784 383.982081 950.841784 626.332455 754.350375 822.823864 512 822.823864ZM512 347.411932C410.993249 347.411932 329.149257 429.292495 329.149257 530.262675 329.149257 631.269426 410.993249 713.113418 512 713.113418 612.97018 713.113418 694.850743 631.269426 694.850743 530.262675 694.850743 429.292495 612.97018 347.411932 512 347.411932ZM512 639.973121C451.403264 639.973121 402.289554 590.859411 402.289554 530.299246 402.289554 469.702509 451.403264 420.588799 512 420.588799 572.596736 420.588799 621.710446 469.702509 621.710446 530.299246 621.710446 590.859411 572.596736 639.973121 512 639.973121Z"  horiz-adv-x="1024" />

    
    <glyph glyph-name="pczuocedibudaohangyouhuiquanguizehover" unicode="&#58952;" d="M863.573333 896 191.146667 896C133.12 896 85.333333 848.213333 85.333333 790.186667l0-112.64c0-10.24 6.826667-20.48 20.48-23.893333l419.84-75.093333c3.413333 0 6.826667 0 10.24 0l419.84 75.093333c10.24 3.413333 20.48 13.653333 20.48 23.893333L976.213333 790.186667C969.386667 848.213333 921.6 896 863.573333 896zM945.493333 592.213333C945.493333 592.213333 945.493333 592.213333 945.493333 592.213333L945.493333 592.213333l-419.84-64.853333L112.64 592.213333l0 0c0 0-3.413333 0-3.413333 0-13.653333 0-23.893333-10.24-23.893333-23.893333l0-590.506667c0-58.026667 47.786667-105.813333 105.813333-105.813333l672.426667 0c58.026667 0 105.813333 47.786667 105.813333 105.813333L969.386667 568.32c0 6.826667-3.413333 13.653333-6.826667 17.066667C959.146667 588.8 952.32 592.213333 945.493333 592.213333zM655.36 182.613333c13.653333 0 23.893333-10.24 23.893333-23.893333 0-13.653333-10.24-23.893333-23.893333-23.893333l-105.813333 0 0-105.813333c0-13.653333-10.24-23.893333-23.893333-23.893333-13.653333 0-23.893333 10.24-23.893333 23.893333l0 105.813333-105.813333 0c-13.653333 0-23.893333 10.24-23.893333 23.893333 0 13.653333 10.24 23.893333 23.893333 23.893333l105.813333 0 0 58.026667-105.813333 0c-13.653333 0-23.893333 10.24-23.893333 23.893333 0 13.653333 10.24 23.893333 23.893333 23.893333L512 288.426667l-129.706667 126.293333c-10.24 10.24-10.24 23.893333 0 34.133333 10.24 10.24 23.893333 10.24 34.133333 0l112.64-105.813333 109.226667 105.813333c10.24 10.24 23.893333 10.24 34.133333 0 10.24-10.24 10.24-23.893333 0-34.133333l-126.293333-126.293333 112.64 0c13.653333 0 23.893333-10.24 23.893333-23.893333 0-13.653333-10.24-23.893333-23.893333-23.893333l-105.813333 0 0-58.026667L655.36 182.613333z"  horiz-adv-x="1024" />

    
    <glyph glyph-name="search" unicode="&#58953;" d="M142.904 416.41c0 185.144 150.072 335.217 335.217 335.217 185.149 0 335.222-150.077 335.222-335.217 0-185.144-150.072-335.222-335.222-335.222-185.144 0-335.217 150.077-335.217 335.222v0zM725.381 110.269l177.838-177.797 51.538 51.553-177.132 177.178c58.609 68.7 94.008 157.814 94.008 255.201 0 217.334-176.179 393.513-393.518 393.513-217.339 0-393.513-176.179-393.513-393.513 0-217.339 176.179-393.523 393.513-393.523 93.676 0.005 179.697 32.737 247.265 87.388v0z"  horiz-adv-x="1024" />

    
    <glyph glyph-name="duihao6" unicode="&#58954;" d="M924.284 559.030c-22.551 53.309-54.822 101.186-95.925 142.284-41.104 41.104-88.976 73.38-142.29 95.93-55.206 23.351-113.83 35.189-174.253 35.189s-119.051-11.838-174.258-35.189c-53.309-22.55-101.181-54.826-142.285-95.93-41.103-41.098-73.379-88.975-95.925-142.284-23.35-55.202-35.189-113.835-35.189-174.254 0-60.423 11.84-119.050 35.189-174.258 22.545-53.309 54.822-101.18 95.925-142.284 41.103-41.104 88.976-73.38 142.285-95.926 55.206-23.35 113.835-35.188 174.258-35.188s119.046 11.838 174.253 35.188c53.313 22.545 101.186 54.822 142.29 95.926 41.098 41.103 73.374 88.975 95.925 142.284 23.35 55.207 35.189 113.835 35.189 174.258 0 60.42-11.84 119.051-35.189 174.254zM748.653 504.83l-271.552-280.268c-5.27-5.438-12.345-8.433-19.921-8.433-6.971 0-13.636 2.599-18.767 7.318l-164.339 151.048c-11.256 10.347-11.998 27.928-1.653 39.191 5.238 5.698 12.684 8.966 20.428 8.966 6.969 0 13.632-2.597 18.764-7.314l144.448-132.769 252.75 260.864c5.275 5.442 12.353 8.438 19.931 8.438 7.241 0 14.092-2.775 19.293-7.815 10.985-10.645 11.261-28.243 0.616-39.226z"  horiz-adv-x="1024" />

    
    <glyph glyph-name="duihao11" unicode="&#58955;" d="M512.064 896c-282.816 0-512.064-229.216-512.064-512s229.248-512 512.032-512 512.064 229.216 512.064 512-229.248 512-512.032 512zM513.824 212.864l-71.296-76.736-289.152 268.576 71.296 76.736 216.8-201.344 356.96 384.384 72.384-67.232-356.992-384.384z"  horiz-adv-x="1025" />

    
    <glyph glyph-name="duihao7" unicode="&#58956;" d="M924.284 559.030c-22.551 53.309-54.822 101.186-95.925 142.284-41.104 41.104-88.976 73.38-142.29 95.93-55.206 23.351-113.83 35.189-174.253 35.189s-119.051-11.838-174.258-35.189c-53.309-22.55-101.181-54.826-142.285-95.93-41.103-41.098-73.379-88.975-95.925-142.284-23.35-55.202-35.189-113.835-35.189-174.254 0-60.423 11.84-119.050 35.189-174.258 22.545-53.309 54.822-101.18 95.925-142.284 41.103-41.104 88.976-73.38 142.285-95.926 55.206-23.35 113.835-35.188 174.258-35.188s119.046 11.838 174.253 35.188c53.313 22.545 101.186 54.822 142.29 95.926 41.098 41.103 73.374 88.975 95.925 142.284 23.35 55.207 35.189 113.835 35.189 174.258 0 60.42-11.84 119.051-35.189 174.254zM748.653 504.83l-271.552-280.268c-5.27-5.438-12.345-8.433-19.921-8.433-6.971 0-13.636 2.599-18.767 7.318l-164.339 151.048c-11.256 10.347-11.998 27.928-1.653 39.191 5.238 5.698 12.684 8.966 20.428 8.966 6.969 0 13.632-2.597 18.764-7.314l144.448-132.769 252.75 260.864c5.275 5.442 12.353 8.438 19.931 8.438 7.241 0 14.092-2.775 19.293-7.815 10.985-10.645 11.261-28.243 0.616-39.226z"  horiz-adv-x="1024" />

    
    <glyph glyph-name="huangguan" unicode="&#59063;" d="M508.657783-127.985704c-68.309691 0-134.595467 13.387249-197.017219 39.791072-60.275299 25.495-114.397161 61.982658-160.863476 108.449995-46.467337 46.467337-82.954995 100.589198-108.448974 160.862455C15.925313 243.540591 2.538063 309.827388 2.538063 378.135037c0 68.306628 13.387249 134.592403 39.790051 197.017219 25.492958 60.273257 61.980616 114.39614 108.448974 160.863476 46.468358 46.468358 100.59022 82.956016 160.863476 108.449995 62.422773 26.40178 128.708549 39.789029 197.017219 39.789029 68.306628 0 134.592403-13.387249 197.017219-39.789029 60.273257-25.493979 114.39614-61.981637 160.863476-108.449995 46.466316-46.464273 82.953974-100.586135 108.449995-160.863476 26.402801-62.422773 39.79005-128.708549 39.790051-197.017219s-13.386228-134.594446-39.790051-197.01824c-25.496022-60.27632-61.98368-114.399203-108.451016-160.863477-46.465294-46.466316-100.587156-82.953974-160.862455-108.448974-62.420731-26.402801-128.707528-39.79005-197.017219-39.79005z m0 930.547605c-234.030768 0-424.427885-190.397117-424.427885-424.427885 0-234.031789 190.398138-424.429927 424.427885-424.429928 234.030768 0 424.427885 190.398138 424.427885 424.429928 0 234.030768-190.397117 424.427885-424.427885 424.427885zM508.657783 822.984859c-245.290966 0-444.850844-199.558856-444.850844-444.850843S263.366816-66.717849 508.657783-66.717849s444.850844 199.559877 444.850843 444.851865S753.948749 822.984859 508.657783 822.984859zM284.423908 116.99177l18.285696-28.823943 42.224467-20.881454 16.236252 109.608998zM363.141139 178.43322l-1.970816-1.537849-16.236252-109.608998 31.458505-15.557189 22.311061 150.621363zM398.703637 202.350547l-22.311061-150.621363 31.458504-15.55821 28.352172 191.397842zM436.203252 227.568816l-28.352172-191.397842 31.459525-15.557188 34.391242 232.174321zM473.701847 252.788107l-34.391242-232.174321 31.458505-15.557189 40.431331 272.9508zM511.200441 278.007397l-40.431331-272.9508 31.458504-15.557189 46.471422 313.726259zM548.699036 303.225667l-46.471422-313.726259 31.458505-15.557189 52.511511 354.502738zM586.19763 328.444957l-52.511511-354.502738 31.458504-15.55821 58.551601 395.279218zM623.696224 353.663227l-58.551601-395.279218 31.458504-15.557188 64.591692 436.055696zM661.194819 378.882517l-64.591692-436.055696 1.163088-0.574907a440.806077 440.806077 0 0 1 33.745876 8.311123l67.181322 453.53775-37.498594-25.21827zM698.693413 404.101808l-67.181322-453.537749a441.143055 441.143055 0 0 1 35.522673 11.877992l69.157244 466.879047-37.498595-25.21929zM736.192008 429.320077l-69.157244-466.879047a442.304101 442.304101 0 0 1 36.083283 15.663388l70.572555 476.43495-37.498594-25.219291zM773.690602 454.539368l-70.572555-476.43495a444.225901 444.225901 0 0 1 36.742945 20.119678l71.328205 481.534562-37.498595-25.21929zM811.189197 479.757637L739.860992-1.775904a446.53778 446.53778 0 0 1 37.561906 25.650215l71.263872 481.103638-37.497573-25.220312zM849.934613 505.81529l-1.246822-0.838363-71.263872-481.103637a448.430988 448.430988 0 0 1 38.658618 33.052516l64.124006 432.90035-30.27193 15.989134zM880.206543 489.826156l-64.124006-432.90035a448.763882 448.763882 0 0 1 40.290413 44.064576l55.147095 372.29624-31.313502 16.539534zM911.520045 473.286622l-55.147095-372.29624a446.486723 446.486723 0 0 1 43.464141 65.491323l42.996455 290.265384-31.313501 16.539533zM942.832525 456.747089L899.837091 166.481705c34.21254 62.977257 53.670514 135.082554 53.670514 211.652311 0 26.062759-2.260822 51.605753-6.582319 76.451303l-4.092761 2.16177zM167.379932 506.049133l2.189341 6.176924c5.629589 16.809116 20.327992 28.067272 38.2328 29.319199 16.34143 1.173299 32.68184-8.365244 40.343512-23.37714 7.81893-15.324367 5.63061-33.384389-5.707195-46.832907-1.328513-1.484749-2.658048-2.970519-4.142798-4.690133 31.664776-19.389557 63.173317-38.546292 94.525622-57.85722 11.88412-7.349202 23.845847-14.698403 35.729967-21.812741 6.801866-3.988604 12.040355-2.815305 15.714445 3.831347A264110.239748 264110.239748 0 0 1 492.708473 588.614049c-15.714446 7.975165-25.879973 20.171756-26.817387 38.2328-0.625964 12.666319 3.830326 23.534396 12.821534 32.368347 17.826179 17.357473 47.067772 15.715467 62.70461-3.517855 17.983436-22.048626 11.49302-47.84895-17.04398-67.239528 9.3047-17.04398 18.687007-34.166589 28.146921-51.21159 26.192445-47.693735 52.227632-95.229193 78.419056-142.921907 6.020688-11.024313 9.852035-12.040355 20.641484-5.63061 40.499748 24.706674 80.921889 49.569584 121.421637 74.354887 1.875849 1.173299 3.67409 2.345577 5.863432 3.674091-8.365244 8.366265-13.682361 17.826179-14.307304 29.476456-1.172278 21.812741 13.838597 40.890848 34.87016 44.487331 21.892391 3.831347 42.220382-8.678736 48.709777-29.867556 0.468707-1.642006 1.173299-3.361619 1.798242-5.003625v-14.698403c-6.880495-22.048626-21.031563-34.871181-45.348159-35.027417-0.859807-2.501812-1.798242-5.003625-2.501812-7.505437-23.690632-81.23436-47.380243-162.624956-71.070875-243.858296-3.048127-10.634235-6.801866-13.36989-17.513708-13.36989H304.359779c-11.49302 0-15.011896 2.658048-18.138651 13.36989-19.312971 65.909993-38.389035 132.054851-57.700985 197.963823-5.159861 17.826179-10.476978 35.652359-15.715466 53.557167-18.138651 0-31.821012 7.192966-40.343513 22.829804-2.033106 3.830326-3.361619 8.13038-5.003625 12.196591-0.077607 5.081232-0.077607 9.928621-0.077607 14.776011m0 0zM508.500526 148.821972h191.162978c17.04398 0 30.648734-12.040355 32.524583-28.22555 1.87687-16.340409-8.833951-31.196069-25.331617-34.870159-2.345577-0.625964-4.84841-0.703571-7.192966-0.703571H317.181313c-14.542168 0-26.817387 8.678736-31.038813 21.812741-4.378682 13.135026-0.313492 27.990686 11.336784 35.496123 6.019667 3.830326 13.994832 6.489395 21.031563 6.489395 63.408181 0.313492 126.737734 0.001021 189.989679 0.001021m0 0z"  horiz-adv-x="1024" />

    
    <glyph glyph-name="yanjing" unicode="&#58957;" d="M511.997953 418.912138c-19.782555 0-34.912138-15.129582-34.912137-34.912138s15.129582-34.912138 34.912137-34.912138c19.784602 0 34.915207 15.129582 34.915208 34.912138s-15.129582 34.912138-34.915208 34.912138z m0 81.465406c-64.004733 0-116.374474-52.369741-116.374474-116.376521s52.369741-116.376521 116.374474-116.37652c64.006779 0 116.376521 52.369741 116.376521 116.37652s-52.368718 116.376521-116.376521 116.376521z m0-209.476919c-51.203172 0-93.099375 41.893132-93.099374 93.099375s41.896202 93.102445 93.099374 93.102445c51.206242 0 93.102445-41.896202 93.102445-93.102445s-41.896202-93.099375-93.102445-93.099375z m0 256.026095c-141.977595 0-256.026094-116.376521-256.026094-162.92672S370.021382 221.07328 511.997953 221.07328c141.979642 0 256.029164 116.377544 256.029165 162.92672S653.978618 546.92672 511.997953 546.92672z m0-302.57834c-128.012536 0-232.750995 100.083439-232.750994 139.65162s104.739483 139.65162 232.750994 139.65162c128.014582 0 232.754065-100.083439 232.754065-139.65162S640.012536 244.34838 511.997953 244.34838z m0 0"  horiz-adv-x="1024" />

    
    <glyph glyph-name="a1" unicode="&#59312;" d="M233.661737 427.191708c0 28.382421 23.106254 51.393507 51.603285 51.393507 28.500101 0 51.603285-23.011086 51.603285-51.393507s-23.106254-51.393507-51.603285-51.393507c-28.500101 0-51.603285 23.011086-51.603285 51.393507m508.518713 51.392484c28.500101 0 51.603285-23.011086 51.603285-51.393507s-23.106254-51.393507-51.603285-51.393507c-28.500101 0-51.603285 23.011086-51.603285 51.393507s23.106254 51.393507 51.603285 51.393507m-280.064581-51.392484c0 28.382421 23.105231 51.393507 51.603285 51.393507 28.500101 0 51.603285-23.011086 51.603285-51.393507s-23.106254-51.393507-51.603285-51.393507c-28.500101 0-51.603285 23.011086-51.603285 51.393507m49.885154 385.076262c-246.524696 0-446.385607-173.068707-446.385606-386.567219 0-124.990712 68.505233-236.112556 174.760232-306.776965l-0.091074-163.190733 145.912208 98.965989c39.899732-10.134825 82.118276-15.57165 125.803217-15.57165 246.524696 0 446.385607 173.068707 446.385607 386.572336 0 213.500559-199.859887 386.567219-446.385607 386.567219h0.001023z"  horiz-adv-x="1024" />

    
    <glyph glyph-name="duihao8" unicode="&#58958;" d="M850.021376 526.619648c-18.47296 43.671552-44.908544 82.891776-78.580736 116.558848-33.673216 33.673216-72.890368 60.11392-116.563968 78.585856C609.651712 740.893696 561.627136 750.592 512.128 750.592c-49.498112 0-97.526784-9.69728-142.751744-28.827648-43.670528-18.471936-82.88768-44.91264-116.558848-78.585856-33.672192-33.667072-60.112896-72.88832-78.58176-116.558848C155.107328 481.398784 145.408 433.36704 145.408 383.872c0-49.50016 9.699328-97.52576 28.827648-142.751744 18.468864-43.671552 44.909568-82.88768 78.58176-116.559872 33.671168-33.672192 72.889344-60.111872 116.558848-78.58176 45.22496-19.12832 93.253632-28.8256 142.751744-28.8256 49.499136 0 97.523712 9.698304 142.747648 28.8256 43.6736 18.469888 82.890752 44.909568 116.563968 78.58176 33.668096 33.672192 60.107776 72.890368 78.580736 116.559872 19.129344 45.225984 28.827648 93.251584 28.827648 142.751744 0.001024 49.496064-9.698304 97.526784-28.826624 142.747648z m-143.87712-44.399616L483.689472 252.623872c-4.317184-4.4544-10.113024-6.907904-16.319488-6.907904a22.653952 22.653952 0 0 0-15.374336 5.994496L317.369344 375.4496c-9.22112 8.474624-9.828352 22.877184-1.353728 32.104448a22.791168 22.791168 0 0 0 16.735232 7.345152 22.658048 22.658048 0 0 0 15.371264-5.991424L466.454528 300.14464l207.0528 213.699584c4.32128 4.457472 10.120192 6.912 16.32768 6.912 5.931008 0 11.542528-2.27328 15.804416-6.402048 8.999936-8.720384 9.22624-23.13728 0.504832-32.134144z"  horiz-adv-x="1024" />

    
    <glyph glyph-name="guanyuwomen" unicode="&#58959;" d="M941.3 42.36c-29.84 164.32-149.49 292.59-302.83 339 69.76 42.74 116.53 119.47 116.53 207.11 0 134-109 243.090-243.080 243.090s-243.090-109-243.090-243.090 109-243.090 243.090-243.090c184.56 0 342.39-131.56 375.32-312.85 0.349-1.85 0.549-3.978 0.549-6.153 0-8.522-3.069-16.326-8.162-22.369-6.468-7.72-16.178-12.628-27.034-12.628-0.001 0-0.002 0-0.003 0l-681.37-0c-0.070-0.001-0.152-0.001-0.235-0.001-10.637 0-20.14 4.852-26.418 12.462-5.233 6.275-8.382 14.35-8.382 23.16 0 2.369 0.228 4.685 0.662 6.926 20.963 113.542 94.963 213.772 197.793 267.852 8.793 4.697 14.675 13.814 14.675 24.305 0 15.168-12.296 27.465-27.465 27.465-4.678 0-9.082-1.169-12.937-3.232-117.463-61.768-202.063-176.428-226.133-306.638-0.984-5.023-1.547-10.799-1.547-16.706 0-22.209 7.956-42.56 21.173-58.357 16.408-19.664 41.099-32.177 68.713-32.177 0.035 0 0.071 0 0.106 0l681.384-0c0.032-0 0.071-0 0.109-0 49.706 0 90 40.294 90 90 0 5.627-0.516 11.133-1.504 16.474zM323.78 588.47c0 103.74 84.4 188.14 188.15 188.14s188.13-84.4 188.13-188.14-84.4-188.14-188.13-188.14-188.15 84.4-188.15 188.14z"  horiz-adv-x="1024" />

    
    <glyph glyph-name="xing1" unicode="&#58896;" d="M231.206-69.927a22.13 22.13 0 0 0-21.818 25.873l51.605 300.875L42.396 469.902a22.138 22.138 0 0 0-5.601 22.688 22.142 22.142 0 0 0 17.868 15.065l302.093 43.896L491.858 825.297a22.135 22.135 0 0 0 39.696 0l135.101-273.746 302.095-43.896a22.135 22.135 0 0 0 12.265-37.753l-218.6-213.081 51.605-300.875a22.135 22.135 0 0 0-32.114-23.332L511.705 74.67 241.501-67.386a22.136 22.136 0 0 0-10.298-2.541zM105.407 470.299l194.82-189.9a22.146 22.146 0 0 0 6.366-19.591l-45.992-268.142L501.41 119.267a22.138 22.138 0 0 0 20.599 0l240.807-126.601-45.992 268.142a22.147 22.147 0 0 0 6.366 19.591l194.819 189.9-269.23 39.121a22.14 22.14 0 0 0-16.667 12.108L511.708 765.494 391.302 521.528a22.136 22.136 0 0 0-16.664-12.108l-269.233-39.121z"  horiz-adv-x="1024" />

    
    <glyph glyph-name="icon-" unicode="&#58969;" d="M610.468864 384.591872c-17.014784 0-34.039808-15.777792-34.039808-35.244032 0-15.77472 17.025024-31.6416 34.039808-31.6416 25.561088 0 43.800576 15.86688 43.800576 31.6416 0.002048 19.46624-18.239488 35.244032-43.800576 35.244032M498.608128 548.786176c26.758144 0 43.777024 17.015808 43.777024 42.566656 0 26.758144-17.016832 42.535936-43.777024 42.535936-25.526272 0-49.85856-15.777792-49.85856-42.535936-0.001024-25.549824 24.332288-42.566656 49.85856-42.566656M370.92864 194.91328c-44.997632 0-77.831168 7.292928-120.39168 19.465216l-122.810368-62.000128 35.284992 104.537088C76.659712 317.70624 25.6 394.365952 25.6 487.985152c0 165.368832 155.635712 291.847168 345.32864 291.847168 167.817216 0 317.382656-99.72224 346.55744-240.780288-12.148736 2.441216-23.087104 3.64032-32.820224 3.64032-165.385216 0-293.049344-124.056576-293.049344-273.59744 0-25.55904 3.647488-48.620544 9.718784-72.97536-9.718784-1.206272-20.673536-1.206272-30.406656-1.206272m507.087872-119.1936l24.300544-87.552-92.413952 52.308992c-35.264512-7.283712-69.307392-18.266112-104.56576-18.266112-162.952192 0-291.856384 111.910912-291.856384 250.560512 0 138.569728 128.902144 250.456064 291.856384 250.456064C859.764736 523.227136 998.4 411.3408 998.4 272.771072c0-77.857792-52.283392-147.141632-120.383488-197.051392M257.855488 633.888768c-25.535488 0-52.291584-15.777792-52.291584-42.535936 0-25.549824 26.75712-42.566656 52.291584-42.566656 24.308736 0 43.776 17.015808 43.776 42.566656 0 26.758144-19.474432 42.535936-43.776 42.535936m543.540224-249.296896c-18.248704 0-34.04288-15.777792-34.04288-35.244032 0-15.77472 15.794176-31.6416 34.04288-31.6416 24.328192 0 42.576896 15.86688 42.576896 31.6416 0 19.46624-18.248704 35.244032-42.576896 35.244032m0 0"  horiz-adv-x="1024" />

    
    <glyph glyph-name="guohui" unicode="&#58960;" d="M832 101.30432C832 16.09472 758.72512-51.2 673.49504-51.2H358.70464C273.48736-51.2 202.24 16.09472 202.24 101.30432v3.12064C202.24 189.64992 273.48736 258.56 358.70464 258.56h314.7904C758.72512 258.56 832 189.64992 832 104.42496v-3.12064zM512 434.82112m-385.51296 0a385.51296 385.51296 0 1 1 771.02592 0 385.51296 385.51296 0 1 1-771.02592 0ZM515.24864 438.07488m-323.82464 0a323.82464 323.82464 0 1 1 647.64928 0 323.82464 323.82464 0 1 1-647.64928 0ZM538.86976 646.16448l-24.34816 12.78208-24.33536-12.80256 4.63104 27.10016-19.70432 19.19488 27.21024 3.95776 12.16768 24.67328 12.18048-24.65536 27.2128-3.93472-19.68384-19.21024zM369.9072 609.6128l-19.3408 10.15296-19.32544-10.17344 3.67616 21.5296-15.65184 15.2576 21.61152 3.136 9.67168 19.60448 9.67168-19.58656 21.62176-3.13344-15.63648-15.25504zM707.57376 609.6128l-19.3408 10.15296-19.32544-10.17344 3.67616 21.5296-15.65184 15.2576 21.61408 3.136 9.664 19.60448 9.68704-19.58656 21.61408-3.13344-15.6416-15.25504zM603.67872 531.68896l-19.34848 10.15808-19.32544-10.17088 3.68384 21.53216-15.65696 15.24224 21.61408 3.13856 9.66144 19.60448 9.69472-19.584 21.61152-3.13344-15.63648-15.25504zM460.82048 531.68896l-19.34592 10.15808-19.32544-10.17088 3.68128 21.53216-15.65184 15.24224 21.61408 3.13856 9.664 19.60448 9.67936-19.584 21.6192-3.13344-15.63648-15.25504zM261.12 245.76h514.72384l-17.32352 66.56H286.72M351.57248 311.80288L381.84192 386.56h277.11744l29.25824-77.4144z"  horiz-adv-x="1024" />

    
    <glyph glyph-name="yanjing1" unicode="&#58961;" d="M511.948 647.192C218.807 647.192 63.383 369.2 63.383 369.2s167.818-247.09 448.565-247.09c280.768 0 448.604 247.09 448.604 247.09S822.67 647.192 511.948 647.192z m0.276-420.713c-89.385 0-161.85 70.712-161.85 157.925 0 87.213 72.465 157.925 161.85 157.925 89.384 0 161.849-70.712 161.849-157.925 0-87.213-72.466-157.925-161.85-157.925z m-0.256 222.322c-39.135 0-70.858-31.468-70.858-70.274 0-38.805 31.723-70.273 70.858-70.273s70.858 31.468 70.858 70.273c0 38.806-31.724 70.274-70.858 70.274z"  horiz-adv-x="1024" />

    
    <glyph glyph-name="cha" unicode="&#58963;" d="M512.329-128c-282.973 0-512.329 229.2-512.329 511.909 0 282.734 229.357 511.934 512.329 511.934 282.947 0 512.303-229.2 512.303-511.934 0-282.71-229.357-511.909-512.303-511.909v0zM797.802 598.096l-91.863 92.036-200.688-200.101-200.688 200.106-91.863-92.036 200.46-199.884-214.522-213.914 91.863-92.036 214.75 214.142 214.75-214.142 91.863 92.036-214.527 213.914 200.465 199.878z"  horiz-adv-x="1025" />

    
    <glyph glyph-name="duihao9" unicode="&#58964;" d="M511.704776-63.477474c-246.876714 0-447.716928 200.840214-447.716928 447.708741 0 246.871597 200.840214 447.716928 447.716928 447.716928 246.87876 0 447.717951-200.845331 447.717951-447.716928-0.001023-246.86955-200.839191-447.708741-447.717951-447.708741z m0 850.208838c-221.941811 0-402.50726-180.564425-402.50726-402.506237s180.565449-402.492934 402.50726-402.492933 402.508283 180.551122 402.508284 402.492933S733.645564 786.731364 511.704776 786.731364zM426.658821 188.03584L242.867912 360.134453l39.994899 39.994899 143.568836-141.899824L740.549811 580.433858l39.99183-39.9949s-346.378915-352.399025-353.88282-352.403118z"  horiz-adv-x="1024" />

    
    <glyph glyph-name="water-drop" unicode="&#58965;" d="M794.47 387.020c-0.941 3.506-2.86 6.479-5.446 8.698l-277.536 464.015-39.885-66.491h0.051l-240.896-401.716c-1.179-1.947-1.993-4.244-2.286-6.701-26.693-45.095-41.251-100.102-41.251-155.722 0-178.808 145.46-324.267 324.284-324.267 178.79 0 324.267 145.46 324.267 324.267 0 55.091-14.268 109.568-41.302 157.918z"  horiz-adv-x="1024" />

    
    <glyph glyph-name="duihao10" unicode="&#58966;" d="M460.362393 104.806838c-154.037607 0-278.317949 124.280342-278.317949 278.317948s124.280342 278.317949 278.317949 278.317949 278.317949-124.280342 278.317949-278.317949-124.280342-278.317949-278.317949-278.317948z m0 523.377777c-134.782906 0-243.309402-108.526496-243.309402-243.309401s108.526496-243.309402 243.309402-243.309402 243.309402 108.526496 243.309402 243.309402c0 133.032479-108.526496 243.309402-243.309402 243.309401zM301.073504 453.14188L465.613675 248.34188c7.001709-8.752137 19.254701-8.752137 26.25641 0l346.584616 376.341881c10.502564 10.502564-5.251282 26.25641-15.753846 17.504273L498.871795 372.622222c-5.251282-5.251282-14.003419-5.251282-19.254701-1.750427l-155.788034 108.526496c-17.504274 10.502564-35.008547-10.502564-22.755556-26.256411z"  horiz-adv-x="1024" />

    
    <glyph glyph-name="chevronleftcircle" unicode="&#59390;" d="M881.562 65.638c-91.853-91.853-214.016-142.438-343.962-142.438s-252.058 50.586-343.962 142.438-142.438 214.016-142.438 343.91 50.586 252.058 142.438 343.962 214.016 142.438 343.962 142.438 252.058-50.586 343.962-142.438 142.438-214.016 142.438-343.962-50.586-252.058-142.438-343.91zM537.6 844.8c-239.974 0-435.199-195.226-435.2-435.2s195.226-435.199 435.2-435.2c239.974 0 435.199 195.226 435.2 435.2s-195.226 435.199-435.2 435.2zM460.8 691.2c-6.553 0-13.107-2.509-18.125-7.475-9.984-9.984-9.984-26.214 0-36.198l237.875-237.875-237.875-237.875c-9.984-9.984-9.984-26.214 0-36.198s26.214-9.984 36.198 0l256 256c9.984 9.984 9.984 26.214 0 36.198l-256 256c-5.018 5.018-11.571 7.476-18.125 7.475z"  horiz-adv-x="1024" />

    
    <glyph glyph-name="shezhi" unicode="&#58904;" d="M661.63712-21.73952c-16.27648 0.00512-32.10752 6.72768-42.3168 18.00704-13.92128 15.26272-58.03008 54.95296-94.14144 54.95296-35.85536 0-80.64512-39.92064-93.51168-53.89824-10.19392-11.08992-25.90208-17.69984-42.01984-17.69984-7.68 0-14.9248 1.46944-21.53984 4.37248l-1.15712 0.50688-109.7472 61.36832-1.09056 0.76288c-19.97312 13.98272-27.57632 41.344-17.67936 63.63648 0.0768 0.16384 10.12736 23.35232 10.12736 44.48768 0 64.13824-52.18816 116.33664-116.33664 116.33664h-3.88608l-0.70656-0.01536c-18.37568 0-33.33632 16.32256-38.12352 41.58976-0.37888 2.0224-9.35936 49.93536-9.35936 87.68512 0 37.75488 8.97536 85.67296 9.35936 87.69536 4.8384 25.58464 20.12672 42.01472 38.82496 41.5744h3.8912c64.14336 0 116.33664 52.18816 116.33664 116.33152 0 21.13024-10.04032 44.3136-10.14784 44.544-9.89184 22.26688-2.23744 49.61792 17.83296 63.55968l1.13664 0.78848 115.8144 63.62624 1.20832 0.512c6.52288 2.78016 13.66528 4.18816 21.23264 4.18816 16.08704 0 31.8208-6.47168 42.112-17.31584 13.71136-14.35136 57.0368-51.68128 92.11392-51.68128 34.7392 0 77.80352 36.59264 91.4688 50.69312 10.22976 10.61888 25.86112 16.98304 41.7792 16.98304 7.72096 0 14.99648-1.46432 21.632-4.34176l1.17248-0.512 111.86176-62.14656 1.11104-0.77312c20.01408-13.96736 27.63264-41.32352 17.73056-63.62624-0.07168-0.16896-10.12736-23.35744-10.12736-44.4928 0-64.14336 52.18816-116.33152 116.33664-116.33152h3.8912c18.67776 0.41472 33.98144-15.98976 38.82496-41.5744 0.384-2.02752 9.35936-49.93536 9.35936-87.69024s-8.97536-85.67296-9.36448-87.69024c-4.8384-25.58464-20.1472-41.95328-38.82496-41.56928h-3.88608c-64.14336 0-116.33664-52.19328-116.33664-116.34176 0-21.13024 10.04544-44.30336 10.14272-44.53376 9.8816-22.25664 2.24256-49.6128-17.792-63.5648l-1.11616-0.78848-113.75616-62.86848-1.18272-0.512c-6.51776-2.816-13.62944-4.23424-21.15072-4.23424z m-3.456 53.59104c0.512-0.32768 1.95072-0.896 3.456-0.896l0.17408 0.00512 106.27584 58.74176c-2.56512 5.95456-14.29504 34.88256-14.29504 65.0496 0 90.22976 71.0656 164.17792 160.16896 168.80128 1.28 7.08096 8.23808 46.91968 8.23808 76.8s-6.95808 69.69856-8.23808 76.8c-89.09824 4.62848-160.16896 78.57152-160.16896 168.80128 0 30.21312 11.77088 59.17696 14.3104 65.09056l-104.55552 58.0864c-0.11776 0.00512-0.27136 0.01536-0.44032 0.01536-1.78176 0-3.44576-0.65024-3.9936-1.024-1.76128-1.80736-16.91136-17.17248-38.6816-32.4864-32.2304-22.66624-62.69952-34.16576-90.57792-34.16576-28.13952 0-58.85952 11.7248-91.2896 34.8416-21.90336 15.61088-37.13024 31.27296-38.89152 33.11104-0.55808 0.37888-2.24256 1.04448-4.03968 1.04448a7.9872 7.9872 0 0 1-0.37376-0.01024L286.96064 710.97856c2.59584-6.03136 14.2848-34.90816 14.2848-65.024 0-90.22464-71.0656-164.1728-160.16896-168.80128-1.28-7.08608-8.23808-46.91456-8.23808-76.8 0-29.88032 6.95808-69.69856 8.24832-76.79488 89.09312-4.62848 160.15872-78.58176 160.15872-168.8064 0-30.27456-11.81184-59.28448-14.32576-65.1264l102.5024-57.31328c0.06144-0.01024 0.14336-0.01024 0.2304-0.01024 1.49504 0 2.91328 0.54784 3.42016 0.87552 1.92 2.05824 17.22368 18.26304 39.27552 34.432 32.86528 24.0896 64.1024 36.3008 92.83072 36.3008 29.00992 0 60.48256-12.44672 93.5424-36.99712 22.17984-16.4608 37.55008-32.9728 39.45984-35.06176z m-132.62336 214.16448c-85.4272 0-154.92608 69.504-154.92608 154.92608 0 85.4272 69.49888 154.92608 154.92608 154.92608 85.4272 0 154.9312-69.49888 154.9312-154.92608 0-85.42208-69.50912-154.92608-154.9312-154.92608z m0 257.15712c-56.3712 0-102.22592-45.85984-102.22592-102.22592 0-56.37632 45.85984-102.23616 102.22592-102.23616s102.23104 45.85984 102.23104 102.23616c0 56.36608-45.85984 102.22592-102.23104 102.22592z"  horiz-adv-x="1024" />

    
    <glyph glyph-name="geren1" unicode="&#58967;" d="M123.399 35.746h792.405v-57.651h-792.405zM123.399 413.808h792.405v-57.651h-792.405zM123.399 791.87h792.405v-57.651h-792.405z"  horiz-adv-x="1024" />

    
    <glyph glyph-name="fanhui3" unicode="&#58949;" d="M704 620.8c-160 0-275.2-121.6-275.2-275.2v-217.6h70.4v217.6c0 115.2 83.2 204.8 204.8 204.8h204.8l-134.4-134.4 51.2-51.2 185.6 204.8 25.6 25.6-25.6 25.6-192 192-51.2-51.2 140.8-140.8h-204.8zM960 89.6c0-44.8-25.6-70.4-70.4-70.4H134.4c-44.8 0-70.4 25.6-70.4 70.4v518.4c0 44.8 38.4 70.4 83.2 70.4h595.2v64h-659.2c-44.8 0-83.2-38.4-83.2-83.2v-614.4c0-44.8 38.4-83.2 83.2-83.2h864c44.8 0 83.2 38.4 83.2 83.2v371.2h-70.4v-326.4z"  horiz-adv-x="1036" />

    
    <glyph glyph-name="duihao2" unicode="&#58901;" d="M924.284 559.030c-22.55 53.308-54.822 101.185-95.925 142.283-41.104 41.104-88.976 73.38-142.29 95.93-55.206 23.35-113.829 35.19-174.252 35.19s-119.052-11.838-174.258-35.19c-53.31-22.55-101.181-54.826-142.285-95.93-41.103-41.098-73.379-88.976-95.924-142.284-23.35-55.202-35.19-113.834-35.19-174.253 0-60.423 11.84-119.050 35.19-174.258 22.545-53.31 54.821-101.18 95.924-142.284 41.104-41.104 88.977-73.38 142.285-95.925 55.206-23.35 113.835-35.189 174.258-35.189s119.046 11.838 174.252 35.189c53.314 22.545 101.186 54.821 142.29 95.925 41.098 41.103 73.374 88.976 95.925 142.284 23.35 55.207 35.19 113.835 35.19 174.258 0 60.42-11.84 119.051-35.19 174.253zM748.653 504.83l-271.553-280.268c-5.27-5.438-12.345-8.433-19.92-8.433-6.971 0-13.636 2.599-18.768 7.317l-164.338 151.049c-11.256 10.346-11.998 27.928-1.652 39.19 5.096 5.517 12.366 8.961 20.441 8.966-0.005-0 0.005 0 0.014 0 7.238 0 13.826-2.78 18.756-7.33l144.429-132.753 252.75 260.865c5.276 5.442 12.354 8.438 19.931 8.438 7.241 0 14.092-2.775 19.294-7.815 10.985-10.645 11.261-28.243 0.616-39.226z"  horiz-adv-x="1024" />

    
    <glyph glyph-name="cha1" unicode="&#58968;" d="M512 468.275l-252.773 252.773c-10.777 10.841-25.701 17.551-42.19 17.551-16.463 0-31.366-6.689-42.137-17.497-10.828-10.777-17.527-25.688-17.527-42.166 0-16.477 6.7-31.389 17.523-42.162l252.88-252.774-252.825-252.773c-10.841-10.777-17.551-25.701-17.551-42.19 0-16.463 6.689-31.366 17.497-42.137 10.777-10.828 25.688-17.527 42.166-17.527 16.477 0 31.389 6.7 42.162 17.523l252.774 252.88 252.773-252.773c23.465-23.465 61.074-23.307 84.327-0.052 10.825 10.775 17.526 25.687 17.526 42.165 0 16.477-6.7 31.389-17.523 42.162l-252.88 252.723 252.773 252.773c10.841 10.777 17.551 25.701 17.551 42.19 0 16.463-6.689 31.366-17.497 42.137-10.777 10.828-25.688 17.527-42.166 17.527-16.477 0-31.389-6.7-42.162-17.523l-252.723-252.88z"  horiz-adv-x="1024" />

    
    <glyph glyph-name="duihao12" unicode="&#58970;" d="M512.082-128c-282.772 0-512 229.228-512 512s229.228 512 512 512 512-229.228 512-512-229.233-512-512-512zM512.082 832c-247.424 0-448-200.571-448-448 0-247.424 200.576-448 448-448s448 200.576 448 448c0 247.429-200.576 448-448 448zM526.843 177.935c-1.654-4.726-4.045-9.201-7.946-12.856-5.707-5.359-13.409-8.651-21.88-8.651-9.2 0-17.492 3.883-23.329 10.099l-146.32 134.955c-5.201 5.671-8.388 13.262-8.388 21.598 0 17.673 14.327 32 32 32 9.070 0 17.259-3.774 23.082-9.836l114.509-105.606 204.652 354.468c5.639 9.631 15.934 15.996 27.716 15.996 5.888 0 11.405-1.59 16.144-4.363 9.479-5.558 15.844-15.854 15.844-27.637 0-5.891-1.591-11.411-4.367-16.152l-221.717-384.013z"  horiz-adv-x="1024" />

    
    <glyph glyph-name="duihao13" unicode="&#58973;" d="M960-73.728h-896V841.728h896v-915.456z m-856.576 38.912h817.664V802.816h-817.664v-837.632zM425.472 131.584h-49.664l-245.248 245.248 49.664 49.664 220.672-220.672 431.104 431.104 49.664-49.664-456.192-455.68z"  horiz-adv-x="1024" />

    
    <glyph glyph-name="duihao14" unicode="&#58974;" d="M1097.168 779.508l-567.081-567.159-301.668 301.746-111.929-111.927 413.596-413.674 679.009 679.087z"  horiz-adv-x="1415" />

    
    <glyph glyph-name="xuanzhuanLeft" unicode="&#58975;" d="M41.44 468.096l113.536-0.768c16.636 105.672 69.855 196.645 146.041 261.415 54.307 55.7 161.108 103.258 279.018 103.258 0.381 0 0.763-0 1.144-0.001l2.949 0c119.618-0.489 227.616-49.833 305.151-129.098 76.454-77.021 124.020-183.839 124.020-301.765 0-1.412-0.007-2.823-0.020-4.232-1.63-237.033-195.102-428.905-431.966-428.905h-2.944c-17.625 0.064-31.888 14.366-31.888 32 0 17.673 14.327 32 32 32 0.039 0 0.079-0 0.118-0l2.682 0c201.792 0 366.624 163.488 368 365.568 0.011 1.035 0.017 2.259 0.017 3.484 0 100.434-40.512 191.406-106.087 257.466-66.183 67.424-158.251 109.287-260.096 109.484l-1.898-0.002c-0.277 0.001-0.604 0.001-0.932 0.001-100.439 0-191.418-40.505-257.491-106.072-59.61-58.673-99.143-137.635-107.402-225.688l130.113 29.839c22.016-0.16 29.088-14.592 15.776-32.096l-149.952-197.184c-13.312-17.504-34.592-17.12-47.264 0.864l-139.52 198.048c-12.736 17.952-5.12 32.544 16.896 32.384z"  horiz-adv-x="1024" />

    
    <glyph glyph-name="duihao3" unicode="&#58926;" d="M509.866667-110.933333c-273.066667 0-492.8 221.866667-492.8 492.8 0 273.066667 221.866667 492.8 492.8 492.8 273.066667 0 492.8-221.866667 492.8-492.8 0-270.933333-221.866667-492.8-492.8-492.8z m0 906.666666c-228.266667 0-411.733333-185.6-411.733334-411.733333 0-228.266667 185.6-411.733333 411.733334-411.733333 228.266667 0 411.733333 185.6 411.733333 411.733333 0 226.133333-185.6 411.733333-411.733333 411.733333zM755.2 522.666667c-17.066667 19.2-44.8 21.333333-64 4.266666l-273.066667-232.533333-87.466666 91.733333c-17.066667 19.2-44.8 19.2-64 2.133334-19.2-17.066667-19.2-46.933333-2.133334-64l117.333334-123.733334c8.533333-8.533333 21.333333-14.933333 32-14.933333s21.333333 4.266667 29.866666 10.666667l307.2 260.266666c19.2 17.066667 21.333333 46.933333 4.266667 66.133334z"  horiz-adv-x="1024" />

    
    <glyph glyph-name="iconfont7" unicode="&#59198;" d="M970.3162311111112 355.2017066666666h-916.6335999999999c-15.339519999999998 0-27.77656888888889 12.590648888888888-27.77656888888889 27.942684444444442s12.437048888888887 27.942684444444442 27.77656888888889 27.942684444444442h916.6335999999999c15.339519999999998 0 27.77656888888889-12.590648888888888 27.77656888888889-27.942684444444442s-12.437048888888887-27.942684444444442-27.77656888888889-27.942684444444442zM539.8084266666667 841.4594844444443v-916.6335999999999c0-15.339519999999998-12.590648888888888-27.77656888888889-27.942684444444442-27.77656888888889s-27.942684444444442 12.437048888888887-27.942684444444442 27.77656888888889v916.6335999999999c0 15.339519999999998 12.590648888888888 27.77656888888889 27.942684444444442 27.77656888888889s27.942684444444442-12.437048888888887 27.942684444444442-27.77656888888889z"  horiz-adv-x="1024" />

    
    <glyph glyph-name="fanhui4" unicode="&#58918;" d="M514.56 816.64c-240.34816 0-435.2-194.86208-435.2-435.2 0-240.34816 194.85696-435.2 435.2-435.2 240.34816 0 435.2 194.85696 435.2 435.2s-194.85184 435.2-435.2 435.2z m0-835.584c-220.75904 0-400.384 179.62496-400.384 400.38912 0 220.75904 179.62496 400.384 400.384 400.384 220.76416 0 400.384-179.62496 400.384-400.384 0-220.76416-179.61984-400.38912-400.384-400.38912zM441.02656 510.39232l3.84512 124.90752-220.4416-209.53088 220.4416-209.52064v141.00992s305.56672 108.81536 243.69152-229.67296c0 0 197.25312 411.01312-247.53664 382.80704z"  horiz-adv-x="1024" />

    
    <glyph glyph-name="xiangzuoxuanzhuan1" unicode="&#58976;" d="M512-128c-189.408 0-354.368 103.104-442.944 256h115.488c76.16-97.248 194.368-160 327.456-160 229.76 0 416 186.24 416 416S741.76 800 512 800c-114.88 0-218.272-47.168-293.472-122.528L384 512H0V896l150.368-150.368C242.944 838.368 370.592 896 512 896c282.784 0 512-229.216 512-512s-229.216-512-512-512z"  horiz-adv-x="1024" />

    
    <glyph glyph-name="zuji" unicode="&#58971;" d="M751.325009 746.980315c-32.923916 8.000952-65.794493 8.707702-98.545055-0.906775-40.711509-11.868078-70.675073-35.630905-86.076905-77.129174-19.0556-51.299435-19.042265-100.905336 6.307417-149.591126 7.280866-14.055005 14.228359-28.323369 20.509106-42.818427 13.801642-31.670434 12.001428-62.96749-3.720443-93.864498-10.281223-20.002379-23.389449-37.884506-38.164539-54.67317a148.897711 148.897711 0 0 1-24.80295-38.911295 144.91057 144.91057 0 0 1-12.454815-57.08679c-0.226694-25.949753 5.533992-50.285981 19.495652-72.101909 18.322179-28.630072 44.77866-44.978683 78.115958-49.245858 44.75199-5.77402 85.490169 4.480533 120.747696 34.510772a358.202607 358.202607 0 0 1 54.086433 58.433617c42.551728 56.780087 78.876049 117.413966 110.746507 180.728163 19.215619 38.151205 33.217284 78.369322 39.618045 120.89438 0.706751 8.961066 1.693535 17.882127 2.026908 26.803188 2.480295 69.168227-23.416119 124.668162-78.222637 165.873063-32.737227 24.616261-70.008327 39.431357-109.666378 49.085839z m154.685066-240.575282c-6.294082-49.445881-25.629715-92.344317-43.138465-127.148457-29.043455-57.633522-47.845691-90.584108-86.583632-142.270256-8.627693-11.534705-69.408256-113.000107-165.926403-96.998204-43.471837 7.214191-74.048808 71.26181-62.674121 110.679831 19.162279 66.061191 47.632332 80.636258 65.714483 111.506597 13.068221 22.30932 23.656147 62.794136 16.58864 99.851877-8.374329 43.83188-60.180492 106.132624-42.245025 169.846869 10.241218 36.417665 25.456361 73.64876 76.569107 83.716624 74.342176 14.668411 150.457896-21.842598 180.288112-44.258597 49.859264-37.511128 71.141795-88.103813 61.340629-164.952954zM528.698529 730.725048c34.470767-19.855695 74.675549-7.600904 92.010944 28.003331 8.000952 16.521965 10.161209 33.88403 7.720918 53.846405-4.000476 25.162993-15.80188 48.072385-38.671266 64.394326-34.217403 24.429572-77.089169 14.748421-96.771511-21.669244-22.522679-41.898317-5.72068-100.571963 35.710915-124.574818z m-11.107988 102.265497c10.881294 22.109296 36.204306 28.816761 57.126795 15.055124 13.988331-9.227764 21.562565-22.576019 24.496247-37.484458 1.920228-11.814739 1.040124-22.189306-3.373735-32.203831-9.481128-21.589235-33.17728-29.79021-54.153108-18.748896-25.243003 13.334919-36.604354 47.925701-24.109534 73.342057z m202.570761-60.407185c20.002379 13.588283 28.883436 33.337299 31.203712 53.766395 1.253482 17.442075-1.146803 31.47041-8.614358 44.391947-15.135134 26.336466-45.338726 32.977256-70.248356 15.655196-31.097032-21.615904-39.924749-71.26181-18.122156-101.91879 15.708535-22.095962 43.151799-27.203236 65.781158-11.881413z m-36.724368 88.63721c13.841646 9.614477 30.5503 5.934039 38.977969-8.681033 4.133825-7.147517 5.453982-14.948445 4.747232-24.629596-1.253482-11.294677-6.214072-22.28265-17.335395-29.803545-12.534824-8.494344-27.749967-5.680676-36.45767 6.600785-12.108107 17.002022-7.200857 44.511961 10.027859 56.513389z m142.896997-102.265498c17.908797 10.667936 26.669839 27.256575 29.696865 44.631976 2.040243 14.96178 0.706751 27.149896-5.053934 38.671266-11.62805 23.442788-37.21776 30.736989-59.567085 17.095367-27.869982-16.962018-38.1112-59.220377-20.989163-86.743651 12.321466-19.829025 35.64424-25.629715 55.913317-13.628288zM801.170938 834.604071c11.614715 7.067507 24.896295 3.293725 30.977018-8.894392 2.987022-5.960709 3.667103-12.321466 2.600309-20.082388-1.560186-9.014406-6.107393-17.668768-15.415167-23.189425-10.521251-6.240742-22.669363-3.213716-29.070124 7.067507-8.907726 14.308369-3.587093 36.257646 10.907964 45.098698z m62.380753-107.012729c9.05441-20.935824 30.763659-29.856885 52.112865-21.109178 18.908916 7.774258 29.73687 22.669363 35.230858 39.017975 4.12049 14.175019 4.600547 26.216452 0.720085 38.124534-7.840933 24.336228-31.510415 35.004164-55.153227 24.949635-29.403497-12.49482-45.45874-52.006186-32.897246-80.996301z m38.13787 55.286576c11.668055 4.96059 23.362779-0.306703 27.24324-12.321466 1.920228-5.907369 1.6802-11.841408-0.360043-18.842241-2.666984-8.107631-8.067626-15.441837-17.335395-19.255623-10.547921-4.333849-21.335871 0.08001-25.749729 10.401237-6.227407 14.335038 1.720205 33.844026 16.241931 40.004758z m66.16787-60.687218c-28.496723-8.334325-47.645667-42.99178-39.284673-71.115126 6.000714-20.242408 25.016309-30.790329 45.632095-25.016309 18.255505 5.120609 29.856885 17.655433 36.711033 32.150491 5.333968 12.654839 7.134182 23.656147 4.90725 35.070838-4.480533 23.22943-25.122988 35.604235-48.00571 28.910106z m21.735919-55.273242a26.149777 26.149777 0 0 0-16.761994-14.668411 16.348611 16.348611 0 0 0-20.829144 11.441361c-3.787117 12.788188 4.920585 28.616737 17.908797 32.430524 10.427907 3.053697 19.81569-2.600309 21.895937-13.214905 1.066794-5.213954 0.226694-10.227883-2.213596-16.001904zM264.613784 494.816988c-38.391233-13.841646-73.862119-32.563873-103.772344-60.553869-50.072623-46.832237-69.874978-104.799132-60.007137-173.353953 1.333492-8.827717 3.227051-17.588759 4.893915-26.429811 10.921299-41.631619 29.150134-80.089526 52.352894-116.013799 38.471243-59.473741 81.089645-115.82711 129.468733-167.833296a358.202607 358.202607 0 0 1 60.007138-52.299555c38.271219-26.083102 79.862833-31.923797 123.748052-21.335871 32.683888 7.827598 57.246809 26.909867 72.395278 57.340154 11.534705 23.189425 14.668411 48.00571 11.65472 73.782109a144.91057 144.91057 0 0 1-18.495534 55.51327 148.897711 148.897711 0 0 1-28.830096 36.004283c-16.48196 15.081794-31.44374 31.457075-43.80521 50.245976-19.00226 29.03012-24.082865 60.007138-13.748302 92.917719 4.693892 15.081794 10.067864 30.003569 15.80188 44.765325 20.002379 51.112746 14.668411 100.451948-9.761162 149.351098-19.775686 39.604711-52.086195 60.007138-93.851163 67.461357-33.590662 6.054053-66.207875 1.840219-98.078332-9.654482z m-128.015227-255.763755c-17.962137 75.35563-2.213597 127.935217 43.338488 170.580289 27.256575 25.483031 99.025112 69.968322 174.514091 63.314198 51.899507-4.547208 71.021781-39.924749 85.103456-75.035592 24.656266-61.420639-20.162398-128.908666-23.802831-173.353953-3.053697-37.604473 11.801404-76.715792 27.1899-97.504931 21.335871-28.763421 51.152751-40.191447 77.342533-103.825683 15.588521-37.964516-8.000952-104.919146-50.39266-116.74722-94.237876-26.269791-165.53969 68.101434-175.367526 78.676025-44.005234 47.24562-66.287885 77.995944-101.345388 132.175722-21.149182 32.723892-44.965348 73.342057-56.513389 121.787819z m351.108429 263.458003c38.671266 28.230024 49.059169 88.450521 22.135966 127.695189-23.469458 34.110724-67.127985 39.177993-98.531719 11.174663-20.975828-18.668887-30.270267-42.671742-31.537085-68.168109-0.280033-20.109059 3.693773-37.137751 13.454934-52.712936 20.989163-33.563992 62.340748-41.431595 94.477904-18.002142z m0.093345 102.865569c15.148469-24.002855 7.560899-59.593755-16.108583-75.528984-19.669006-13.22824-44.111914-7.614239-55.846643 12.841528-5.453982 9.481128-7.440885 19.709011-6.800809 31.657098 1.333492 15.135134 7.414215 29.216809 20.335752 39.884745 19.335633 15.921894 45.218712 12.001428 58.420283-8.854387z m-194.943188-81.769726c24.149539-12.801523 50.872718-4.787236 64.140963 18.868911 18.388854 32.803902 4.293844 81.222994-28.936776 99.385155-26.669839 14.561732-55.939987 4.733896-68.168108-23.082746-6.040719-13.641623-6.920823-27.856647-3.800452-45.058693 4.493868-20.002379 15.441837-38.751276 36.777708-50.112627z m27.016547 92.010944c18.415524-10.081199 26.243121-36.911057 16.001903-55.113222-7.334206-13.134896-22.175971-17.575424-35.53756-10.467912-11.828074 6.294082-17.935467 16.681984-20.389092 27.776638-1.746874 9.547802-1.266817 17.442075 2.080247 24.989639 6.814144 15.441837 23.042741 20.882484 37.817832 12.814857z m-131.108928-116.920574c21.44255-9.761161 44.005234-1.493511 54.126438 19.535657 14.06834 29.203474-0.640076 70.115007-30.163588 84.009993-23.682817 11.161328-48.352418 1.173473-57.340154-23.376114-4.493868-12.001428-4.507203-24.296223-0.880104-38.964634 4.90725-16.948683 15.361827-32.537203 34.310747-41.191567z m16.962017 77.9026c15.361827-7.227526 23.002736-28.483388 15.681865-43.671861-5.333968-10.921299-17.002022-15.215143-28.13668-10.147874-9.841171 4.493868-15.295153 12.601499-17.815452 21.402546-1.893559 7.614239-1.893559 14.001665 0.426717 20.242407 4.733896 12.761518 17.535419 17.948802 29.84355 12.161447z m-50.566014-113.080117c9.334444 30.203593-10.81462 67.728056-41.338251 76.995825-24.576257 7.45422-46.978921-5.680676-52.166205-30.670315-2.586974-12.268126-0.81343-24.176209 4.800571-37.831166 7.227526-15.72187 19.575662-29.336823 39.204664-35.017499 22.162636-6.414096 42.791757 4.787236 49.55256 26.576495z m-43.845216 50.872718c15.108464-4.587212 25.082984-23.12275 20.442432-38.044526-3.33373-10.747945-13.534943-16.281937-24.482912-13.108225-9.667817 2.800333-15.788545 9.507798-19.348968 17.335395-2.786998 6.747469-3.667103 12.628169-2.373616 18.668887 2.573639 12.36147 13.641623 18.842241 25.763064 15.175138z m-59.327056-67.434688c-23.429453 4.213835-42.671742-10.294558-44.591971-33.870696-1.000119-11.588045 1.920228-22.349325 8.627693-34.350752 8.374329-13.668292 21.255862-24.896295 40.004758-28.003331 21.122512-3.520419 38.89796 9.001071 42.671743 29.76354 5.333968 28.856766-17.45541 61.26062-46.672218 66.487909z m-15.6952-57.340154c-3.040362 5.467317-4.413858 10.361232-3.907132 15.668531 0.920109 10.78795 9.654482 17.40207 20.349087 15.495176 13.334919-2.400286 23.682817-17.202046 21.335871-30.323607a16.348611 16.348611 0 0 0-19.482317-13.601618 26.149777 26.149777 0 0 0-18.24217 12.774853z"  horiz-adv-x="1024" />

    
    <glyph glyph-name="shangchuanxiangshangjiantou" unicode="&#58919;" d="M515.6-14.2c-220.5 0-400 179.5-400 400s179.5 400 400 400 400-179.5 400-400-179.5-400-400-400z m0 752.9c-194.6 0-352.9-158.3-352.9-352.9S321 32.9 515.6 32.9s352.9 158.3 352.9 352.9-158.3 352.9-352.9 352.9zM515.6 150.5c-13 0-23.5 10.5-23.5 23.5V597.2c0 13 10.5 23.5 23.5 23.5s23.5-10.5 23.5-23.5V174c0-13-10.5-23.5-23.5-23.5zM656.7 432.9c-6 0-12 2.3-16.6 6.9L515.6 564.3 391 439.8c-9.2-9.2-24.1-9.2-33.3 0-9.2 9.2-9.2 24.1 0 33.3l141.2 141.2c9.2 9.2 24.1 9.2 33.3 0l141.2-141.2c9.2-9.2 9.2-24.1 0-33.3-4.6-4.6-10.6-6.9-16.7-6.9z"  horiz-adv-x="1024" />

    
    <glyph glyph-name="iconfont7071" unicode="&#58977;" d="M778.93694152 81.26722158999996L209.26722159 650.93694152c-9.53325534 9.53325534-9.43846556 25.08675277 0.10347306 34.62869139s25.09543604 9.6367284 34.62869138 0.10347305l569.66971993-569.66971993c9.53325534-9.53325534 9.43846556-25.08675277-0.10347305-34.62869138S788.47019687 71.73396624999998 778.93694152 81.26722158999996zM813.58444548 651.02015385l-569.66971993-569.66971993c-9.53325534-9.53325534-25.08675277-9.43846556-34.62869138 0.10347305s-9.6367284 25.09543604-0.10347306 34.62869139l569.66971993 569.66971993c9.53325534 9.53325534 25.08675277 9.43846556 34.62869138-0.10347306S823.11770153 660.5534099 813.58444548 651.02015385z"  horiz-adv-x="1024" />

    


  </font>
</defs>
</svg>
